<svg xmlns="http://www.w3.org/2000/svg" version="1.1" xmlns:xlink="http://www.w3.org/1999/xlink" xmlns:svgjs="http://svgjs.com/svgjs" width="512" height="512" x="0" y="0" viewBox="0 0 512.003 512.003" style="enable-background:new 0 0 512 512" xml:space="preserve" class=""><g><path d="M497.179 139.535 274.715 38.125a45.114 45.114 0 0 0-37.427 0L14.832 139.535a24.55 24.55 0 0 0 0 45.09l70.502 32.137v115.985c0 19.627 12.723 37.385 34.133 51.635v26.377c-16.643 4.297-27.494 20.299-25.328 37.35s16.673 29.832 33.861 29.832 31.695-12.781 33.861-29.832-8.685-33.053-25.328-37.35v-16.572A279.726 279.726 0 0 0 256 418.08c95.701 0 170.667-37.487 170.667-85.333V216.762l70.502-32.137a24.55 24.55 0 0 0 0-45.09zM145.068 443.68c0 9.426-7.641 17.067-17.067 17.067s-17.067-7.641-17.067-17.067 7.641-17.067 17.067-17.067 17.067 7.642 17.067 17.067zm-42.667-110.933V224.544l17.067 7.782v131.029a41.65 41.65 0 0 1-17.067-30.608zm307.2 0c0 37.009-70.34 68.267-153.6 68.267-47.676 0-91.042-10.24-119.467-25.984V240.109l100.753 45.926a45.054 45.054 0 0 0 37.427 0L409.6 224.544v108.203zm80.495-163.661L267.641 270.505a28.428 28.428 0 0 1-23.27 0l-96.666-44.066 75.255-38.101a68.463 68.463 0 0 0 33.041 7.876c28.706 0 51.2-14.993 51.2-34.133s-22.494-34.133-51.2-34.133-51.2 14.993-51.2 34.133a25.262 25.262 0 0 0 4.437 14.071l-81.417 41.216-105.915-48.282a7.493 7.493 0 0 1 0-14.012L244.362 53.656a28.405 28.405 0 0 1 23.27 0l222.464 101.419a7.493 7.493 0 0 1 0 14.011zm-268.228-7.006c0-8.055 14.592-17.067 34.133-17.067s34.133 9.011 34.133 17.067-14.592 17.067-34.133 17.067-34.133-9.011-34.133-17.067z" fill="#ffffff" data-original="#000000" class=""></path></g></svg>